# xmcd
#
# Track frame offsets:
#	151
#	14173
#	26848
#	41124
#	54419
#	67674
#	82468
#	96819
#	110952
#	121749
#	134198
#	146912
#	158834
#	173321
#	185774
#	200961
#	215449
#	230057
#
# Disc length: 3226 seconds
#
# Revision: 0
# Processed by: cddbd v1.5.1PL0 Copyright (c) Steve Scherf et al.
# Submitted via: dBpowerAMP V4.0
#
DISCID=1c0c9812
DTITLE=Louis Jordan - Best Of
DYEAR=1939
DGENRE=Blues
TTITLE0=Mama Mama Blues
TTITLE1=Mister Lovinghood
TTITLE2=Ration Blues
TTITLE3=The things I want I can't get at home
TTITLE4=I'm gonna move to the outskirts of town
TTITLE5=Do you call that a buddy
TTITLE6=T-Bone Blues
TTITLE7=Paper Boy
TTITLE8=Reconversion Blues
TTITLE9=Choo Choo CH'Boogie
TTITLE10=Let the good times roll
TTITLE11=Fore Day Blues
TTITLE12=Hard Lovin Blues
TTITLE13=Buzz Me
TTITLE14=Early in the morning
TTITLE15=Daddy-O
TTITLE16=Lemonade
TTITLE17=Caldonia
EXTD=
EXTT0=
EXTT1=
EXTT2=
EXTT3=
EXTT4=
EXTT5=
EXTT6=
EXTT7=
EXTT8=
EXTT9=
EXTT10=
EXTT11=
EXTT12=
EXTT13=
EXTT14=
EXTT15=
EXTT16=
EXTT17=
PLAYORDER=
